{"asset":{"version":"2.0","generator":"Blockbench 5.1.4 glTF exporter"},"scenes":[{"nodes":[0],"name":"blockbench_export"}],"scene":0,"nodes":[{"name":"Object_6","mesh":0}],"bufferViews":[{"buffer":0,"byteOffset":0,"byteLength":6912,"target":34962,"byteStride":12},{"buffer":0,"byteOffset":6912,"byteLength":6912,"target":34962,"byteStride":12},{"buffer":0,"byteOffset":13824,"byteLength":4608,"target":34962,"byteStride":8},{"buffer":0,"byteOffset":18432,"byteLength":1152,"target":34963}],"buffers":[{"byteLength":19584,"uri":"data:application/octet-stream;base64,"}],"accessors":[{"bufferView":0,"componentType":5126,"count":576,"max":[0.2181050032377243,0.421875,0.20353299379348755],"min":[-0.21945099532604218,0,-0.23449000716209412],"type":"VEC3"},{"bufferView":1,"componentType":5126,"count":576,"max":[0.999993085861206,1,0.9999930262565613],"min":[-0.999993085861206,-1,-0.9999930262565613],"type":"VEC3"},{"bufferView":2,"componentType":5126,"count":576,"max":[0.8828125,0.8828125],"min":[0,0],"type":"VEC2"},{"bufferView":3,"componentType":5123,"count":576,"max":[575],"min":[0],"type":"SCALAR"}],"materials":[{"pbrMetallicRoughness":{"metallicFactor":0,"roughnessFactor":1,"baseColorTexture":{"index":0}},"alphaMode":"MASK","alphaCutoff":0.05,"doubleSided":true}],"textures":[{"sampler":0,"source":0,"name":"adolfo"}],"samplers":[{"magFilter":9728,"minFilter":9728,"wrapS":33071,"wrapT":33071}],"images":[{"mimeType":"image/png","uri":"data:image/png;base64,"}],"meshes":[{"primitives":[{"mode":4,"attributes":{"POSITION":0,"NORMAL":1,"TEXCOORD_0":2},"indices":3,"material":0}]}]}